HIERARCHY
ROOT root
{
	OFFSET 0.000000 0.000000 0.000000
	CHANNELS 6 Xposition Yposition Zposition Zrotation Yrotation Xrotation
	JOINT lhip
	{
		OFFSET 0.058581 -0.082280 -0.017664
		CHANNELS 3 Zrotation Yrotation Xrotation
		JOINT lknee
		{
			OFFSET 0.043451 -0.386469 0.008037
			CHANNELS 3 Zrotation Yrotation Xrotation
			JOINT lankle
			{
				OFFSET -0.014790 -0.426874 -0.037428
				CHANNELS 3 Zrotation Yrotation Xrotation
				JOINT ltoe
				{
					OFFSET 0.041054 -0.060286 0.122042
					CHANNELS 3 Zrotation Yrotation Xrotation
					End Site
					{
						OFFSET 0.000000 0.000000 0.000000
					}
				}
			}
		}
	}
	JOINT rhip
	{
		OFFSET -0.060310 -0.090513 -0.013543
		CHANNELS 3 Zrotation Yrotation Xrotation
		JOINT rknee
		{
			OFFSET -0.043257 -0.383688 -0.004843
			CHANNELS 3 Zrotation Yrotation Xrotation
			JOINT rankle
			{
				OFFSET 0.019056 -0.420046 -0.034562
				CHANNELS 3 Zrotation Yrotation Xrotation
				JOINT rtoe
				{
					OFFSET -0.034840 -0.062106 0.130323
					CHANNELS 3 Zrotation Yrotation Xrotation
					End Site
					{
						OFFSET 0.000000 0.000000 0.000000
					}
				}
			}
		}
	}
	JOINT lowerback
	{
		OFFSET 0.004439 0.124404 -0.038385
		CHANNELS 3 Zrotation Yrotation Xrotation
		JOINT upperback
		{
			OFFSET 0.004488 0.137956 0.026820
			CHANNELS 3 Zrotation Yrotation Xrotation
			JOINT chest
			{
				OFFSET -0.002265 0.056032 0.002855
				CHANNELS 3 Zrotation Yrotation Xrotation
				JOINT lowerneck
				{
					OFFSET -0.013390 0.211636 -0.033468
					CHANNELS 3 Zrotation Yrotation Xrotation
					JOINT upperneck
					{
						OFFSET 0.010113 0.088937 0.050410
						CHANNELS 3 Zrotation Yrotation Xrotation
						End Site
						{
							OFFSET 0.000000 0.000000 0.000000
						}
					}
				}
				JOINT lclavicle
				{
					OFFSET 0.071702 0.114000 -0.018898
					CHANNELS 3 Zrotation Yrotation Xrotation
					JOINT lshoulder
					{
						OFFSET 0.122921 0.045205 -0.019046
						CHANNELS 3 Zrotation Yrotation Xrotation
						JOINT lelbow
						{
							OFFSET 0.255332 -0.015649 -0.022946
							CHANNELS 3 Zrotation Yrotation Xrotation
							JOINT lwrist
							{
								OFFSET 0.265709 0.012698 -0.007375
								CHANNELS 3 Zrotation Yrotation Xrotation
								End Site
								{
									OFFSET 0.000000 0.000000 0.000000
								}
							}
						}
					}
				}
				JOINT rclavicle
				{
					OFFSET -0.082954 0.112472 -0.023707
					CHANNELS 3 Zrotation Yrotation Xrotation
					JOINT rshoulder
					{
						OFFSET -0.113228 0.046853 -0.008472
						CHANNELS 3 Zrotation Yrotation Xrotation
						JOINT relbow
						{
							OFFSET -0.260127 -0.014369 -0.031269
							CHANNELS 3 Zrotation Yrotation Xrotation
							JOINT rwrist
							{
								OFFSET -0.269108 0.006794 -0.006027
								CHANNELS 3 Zrotation Yrotation Xrotation
								End Site
								{
									OFFSET 0.000000 0.000000 0.000000
								}
							}
						}
					}
				}
			}
		}
	}
}
MOTION
Frames: 17
Frame Time: 0.033333
0.222996 0.430772 1.009436 97.516581 7.610601 82.896903 6.876614 3.235529 2.127878 -3.276636 -6.570283 13.001679 6.347496 12.378629 -19.098495 0.000000 -0.000000 0.000000 -19.141513 -14.813623 -15.983532 5.905078 -8.378911 45.543047 22.153170 -0.280048 20.243554 0.000000 -0.000000 0.000000 3.471828 1.454609 11.058372 4.158426 0.271048 -0.018176 0.949251 -0.675483 2.509215 5.202170 -5.075552 3.132145 -2.348133 -6.346912 17.470421 -23.649625 10.215607 -1.855567 -49.300450 -5.456453 6.234114 4.758684 -60.225015 25.202142 -11.962313 -5.255000 14.907775 25.795159 -4.775958 -2.904280 30.591418 3.850055 3.476485 -14.076715 46.169289 0.269635 1.099635 7.901774 13.286945 
0.222773 0.425679 1.009109 96.277715 6.871957 83.529656 6.583875 3.690911 1.861844 -3.414700 -5.936564 12.370086 6.036308 12.396707 -18.804017 0.000000 -0.000000 0.000000 -17.744545 -14.541024 -15.731987 5.200091 -9.580946 45.821272 18.848946 -0.546770 12.687629 0.000000 -0.000000 0.000000 3.026883 1.570013 10.904455 3.733016 0.656154 -0.212151 0.767980 -0.417535 2.470113 5.256505 -4.144799 2.628093 -2.547718 -6.351956 17.390702 -23.858594 10.631959 -2.150249 -48.663195 -5.028176 5.502675 6.867802 -59.301999 22.707750 -10.896366 -4.457550 14.637725 26.055022 -4.554981 -2.661983 31.298668 3.975742 3.681620 -13.965732 46.376030 0.782927 0.265087 8.195825 12.540725 
0.222298 0.418928 1.008873 95.264839 6.214527 84.354062 6.659367 3.856161 1.456493 -3.923617 -5.070802 11.566442 5.909798 12.402322 -18.302485 0.000000 -0.000000 0.000000 -15.512294 -13.077995 -15.417458 4.470444 -10.737592 45.169563 15.561524 -2.931334 5.537323 0.000000 -0.000000 0.000000 2.460122 1.400174 10.819592 3.519044 1.180025 -0.584165 0.449656 -0.294839 2.247244 5.372972 -3.275027 2.325199 -2.982082 -5.870280 17.241722 -24.457501 11.393486 -2.039962 -47.118951 -5.673355 5.860133 8.903584 -58.424982 19.949615 -7.972539 -5.010943 13.636521 26.329316 -4.782557 -2.619065 32.303573 4.249651 5.866743 -15.843144 46.559016 -0.090648 2.735606 8.014898 11.024720 
0.221747 0.411510 1.008262 94.728538 5.269751 85.484564 6.496199 3.911388 0.613063 -4.423767 -4.247580 11.016929 5.616071 12.063414 -17.736412 0.000000 -0.000000 0.000000 -13.196460 -11.286840 -14.918694 4.570446 -10.771856 43.392161 13.563815 -3.563304 -1.114015 0.000000 -0.000000 0.000000 1.526905 1.299141 10.352747 3.319006 1.286156 -0.873086 0.169451 -0.244565 1.909141 5.332793 -2.114714 2.385879 -3.125059 -5.796474 16.875935 -24.687505 11.572694 -1.772531 -45.999606 -6.439109 6.156653 10.918393 -57.608656 17.241404 -6.244688 -5.605664 13.217560 26.246983 -5.009679 -2.529367 33.700902 3.935769 7.768356 -17.281446 47.275579 -0.085896 4.770603 8.249856 9.545795 
0.222228 0.403008 1.007286 94.899205 4.007327 86.563355 6.113493 3.760245 -0.246776 -5.039230 -3.678417 10.566123 4.646730 11.346517 -17.158973 0.000000 -0.000000 0.000000 -11.073314 -9.305778 -13.867106 5.473305 -9.514597 40.604075 12.194038 -2.278991 -7.210886 0.000000 -0.000000 0.000000 0.350652 1.104378 9.696864 3.028609 0.697160 -0.881555 -0.082729 -0.330133 1.495887 5.185581 -0.540420 2.486005 -2.983870 -5.621921 16.496264 -24.579162 10.822867 -1.727890 -45.235068 -6.544620 6.063186 12.681115 -57.292720 14.944692 -5.952303 -5.687558 13.654336 25.962426 -5.032543 -2.461262 35.200023 3.028067 8.522740 -17.425335 48.751489 1.748730 5.537600 8.856497 8.587917 
0.223805 0.393660 1.005712 95.974374 2.448939 87.212840 5.671839 3.532207 -1.105019 -6.001540 -3.155885 10.905280 3.515968 9.951519 -16.642724 0.000000 -0.000000 0.000000 -9.307826 -7.659072 -12.168529 4.686031 -8.572214 37.355753 9.548815 -4.607248 -12.277444 0.000000 -0.000000 0.000000 -0.823061 0.686353 9.286745 2.576907 -0.337734 -0.994426 -0.422632 -0.796584 1.332427 4.670388 0.846783 2.640962 -2.705862 -4.565052 15.885089 -24.406165 9.841670 -1.366829 -44.299982 -7.130983 5.699283 13.669083 -57.168059 13.885109 -5.475309 -6.137741 13.231247 25.431634 -5.244223 -2.519886 36.903913 1.802625 9.572081 -17.795796 50.582092 3.304133 5.619383 9.345460 7.568296 
0.225476 0.383814 1.003655 97.477883 0.731113 87.444559 5.312012 3.586558 -2.286239 -7.348155 -2.613344 12.566500 2.092008 8.061362 -16.264088 0.000000 -0.000000 0.000000 -7.935179 -6.641311 -10.329692 2.264103 -7.461325 33.981183 7.663062 -7.244110 -16.042213 0.000000 -0.000000 0.000000 -1.744098 0.284995 9.153415 1.929479 -1.603288 -1.120062 -0.875643 -1.467912 1.253828 3.819457 2.239689 2.967099 -2.281337 -2.895845 15.046086 -24.273888 8.476410 -0.892135 -43.238831 -8.050502 5.218841 14.065469 -56.972803 13.623950 -4.527086 -6.769324 12.425598 24.703757 -5.576709 -2.589076 38.449343 0.182719 10.573423 -17.960130 52.714404 4.816667 5.114354 9.782357 6.133905 
0.226692 0.373730 1.001727 99.181406 -0.861724 87.276854 5.190297 4.008594 -3.942280 -8.990069 -2.065984 15.713586 0.908769 6.224625 -15.656497 0.000000 -0.000000 0.000000 -6.915723 -5.872282 -9.187363 -0.049304 -5.971901 32.581413 5.895089 -10.057062 -18.497793 0.000000 -0.000000 0.000000 -2.359979 -0.269459 9.149560 1.319483 -2.792183 -1.099662 -1.455157 -2.210674 1.315258 2.944489 3.823097 3.265209 -1.973401 -0.475771 14.344012 -24.418622 6.957714 -0.716981 -41.963853 -9.220198 4.785286 13.847412 -56.760328 14.068279 -3.628767 -7.179796 11.896902 23.956271 -6.074907 -2.769950 39.526561 -1.538596 11.506881 -17.726844 54.741599 6.164843 4.667161 9.989021 4.564935 
0.228526 0.363120 1.001378 101.214150 -2.041356 86.268441 5.556096 4.249892 -5.544464 -10.722298 -1.515314 20.217692 -0.555785 4.689320 -14.261000 0.000000 -0.000000 0.000000 -6.231537 -5.355143 -7.470498 -1.617622 -5.399093 31.847947 4.484054 -12.383010 -19.841658 0.000000 -0.000000 0.000000 -2.805728 -0.887806 9.675136 0.945800 -4.114033 -0.946345 -1.883398 -2.956397 1.441782 2.071882 5.651423 3.799908 -1.727392 2.516535 13.816312 -24.667606 5.424450 -0.542823 -40.913355 -10.434273 4.413564 13.513800 -56.696264 14.565305 -2.698669 -7.562470 11.400270 23.216951 -6.518033 -2.854020 39.936688 -3.324756 12.215381 -16.515994 56.321623 8.275649 3.912976 10.234327 3.398263 
0.231982 0.351030 1.002529 102.934577 -2.666525 84.690272 6.526679 4.220374 -6.610263 -12.206196 -1.560313 24.843595 -2.435138 3.479788 -11.958662 0.000000 -0.000000 0.000000 -5.643788 -5.747470 -4.908791 -2.276317 -5.774617 30.595459 3.213490 -13.817446 -20.597417 0.000000 -0.000000 0.000000 -3.261058 -1.067415 10.022418 0.850066 -5.334785 -0.361991 -1.949934 -3.526826 1.696647 1.365042 7.567812 4.768814 -1.246030 5.193758 13.617184 -24.764137 3.980018 -0.322857 -40.318607 -11.629452 4.190934 12.766325 -56.851537 15.483288 -2.051902 -7.880252 11.002822 22.618555 -6.967558 -2.727052 39.535276 -5.151620 12.393326 -14.193809 57.766529 11.772531 3.846660 10.381647 3.233894 
0.236422 0.336964 1.004513 103.550542 -2.751455 83.034676 7.869424 3.927124 -7.457397 -13.068843 -1.627347 29.410829 -4.416229 3.020830 -9.079536 0.000000 -0.000000 0.000000 -4.725272 -6.491924 -2.052489 -2.410833 -5.991124 28.653569 2.000254 -14.453573 -20.917151 0.000000 -0.000000 0.000000 -3.785362 -0.709480 9.921021 0.961101 -6.051397 0.482538 -1.679471 -3.790929 2.040651 1.015874 9.267310 6.069321 -0.615290 7.200449 13.864253 -24.475172 2.985699 -0.255551 -40.233727 -12.393850 4.313189 11.961413 -57.679455 16.511821 -2.251918 -7.699949 10.155375 22.098018 -7.374886 -2.519489 38.785711 -6.704865 12.466862 -11.363373 58.863345 16.189160 4.846144 10.333259 3.680803 
0.240288 0.321181 1.006430 102.921571 -2.547321 81.566046 9.726980 3.667445 -9.557010 -13.258028 0.548114 35.477175 -7.016422 2.835761 -4.124493 0.000000 -0.000000 0.000000 -3.884861 -7.156598 0.859361 -1.996749 -5.744200 26.057640 0.662394 -13.778542 -20.753999 0.000000 -0.000000 0.000000 -4.296755 0.101538 9.938634 1.197694 -6.390452 1.119709 -1.299086 -3.651012 1.967061 1.034050 10.757625 7.420511 0.185201 8.579220 14.610929 -24.109655 2.521468 -0.356436 -39.901733 -12.154573 4.622324 11.676494 -59.465723 17.033840 -3.352171 -7.567397 9.153407 21.672869 -7.655078 -2.056212 38.250097 -7.575895 12.400997 -8.663898 59.400369 20.449551 6.509220 10.132354 3.769180 
0.241698 0.304167 1.006897 101.506578 -2.225868 80.488690 12.236050 3.071875 -13.926259 -12.966279 3.766996 43.278520 -9.770922 3.096646 4.730725 0.000000 -0.000000 0.000000 -3.334415 -7.694489 2.946032 -0.932006 -4.946592 23.950773 -1.168324 -12.339088 -20.490736 0.000000 -0.000000 0.000000 -4.713566 1.348400 10.344972 1.568747 -6.561096 1.496297 -0.937692 -3.192581 1.462892 1.142609 11.958028 8.074006 1.242917 9.210686 15.396099 -23.838055 2.582418 -0.598758 -39.129667 -11.424813 4.776409 11.985888 -61.886563 16.597302 -3.874801 -7.208616 8.181688 21.571624 -7.654298 -1.389243 37.982752 -7.742423 12.110768 -6.648926 59.774811 23.724468 7.375562 9.796664 3.931839 
0.240955 0.287397 1.005816 99.414987 -1.612694 79.203148 14.908736 2.072537 -19.595174 -10.673346 5.839322 52.319284 -13.298798 2.920175 15.858127 0.000000 -0.000000 0.000000 -2.120875 -7.840165 4.277688 -0.594121 -4.541237 23.087168 -3.201387 -10.820647 -20.180597 0.000000 -0.000000 0.000000 -4.339105 3.130430 11.629520 1.210274 -6.433323 2.150205 0.028172 -2.685908 0.539266 0.185336 11.411253 7.102327 3.342817 10.963230 16.760125 -23.018413 1.771672 -2.123381 -39.639515 -8.503423 3.421304 12.796606 -64.736670 14.074302 -6.766124 -5.776247 10.989436 20.924926 -5.715882 -1.069284 38.469122 -8.671365 8.817311 -0.033222 59.657182 29.136232 3.109627 9.751154 8.743221 
0.239531 0.273334 1.005459 96.627737 -1.890691 77.296333 16.710773 -0.626823 -24.421722 -10.392004 6.248946 60.894335 -12.425499 4.267318 21.735105 0.000000 -0.000000 0.000000 -1.342669 -7.153719 5.908940 -0.488747 -2.548164 22.621269 -4.655924 -11.392011 -19.676275 0.000000 -0.000000 0.000000 -4.550592 5.265553 13.606523 1.296833 -5.339948 2.304868 0.168235 -2.113231 0.928731 0.557643 11.666714 5.549315 3.702279 10.645326 17.518803 -22.885862 2.371111 -2.267054 -39.086095 -8.219490 3.109927 15.124641 -65.850877 10.824254 -3.230148 -5.708727 9.376562 21.319773 -4.638992 -1.028897 38.755707 -7.078125 9.451317 -0.467456 59.408775 28.812905 1.634178 9.597792 9.798860 
0.237526 0.262153 1.006828 93.707742 -2.840055 75.516787 17.814127 -3.942381 -29.679684 -9.620850 7.170706 69.823340 -10.164319 5.410200 19.686466 0.000000 -0.000000 0.000000 -0.907703 -5.940913 7.428357 -0.857233 -0.141691 22.205626 -4.836826 -12.421923 -19.349798 0.000000 -0.000000 0.000000 -5.043027 7.602186 15.640994 1.330802 -4.251433 1.975121 0.279443 -1.262840 1.673047 0.905771 11.616085 4.361538 3.550673 10.355670 18.055023 -22.967204 3.420356 -2.426583 -38.954575 -7.608068 2.975743 17.372515 -65.767723 7.556244 0.371183 -5.685443 8.057009 21.924429 -3.628880 -1.175689 38.492943 -4.613698 10.563520 -1.063301 59.222009 28.331353 0.344080 9.833930 10.584115 
0.234235 0.254118 1.009338 90.944225 -3.965314 74.341020 18.649650 -6.939979 -36.169315 -7.942784 8.178598 78.590759 -7.179993 6.695733 14.944095 0.000000 -0.000000 0.000000 -1.468241 -5.540541 8.201348 -0.800956 1.711131 22.170523 -4.089750 -12.253151 -19.297701 0.000000 -0.000000 0.000000 -5.032119 9.937399 17.451416 1.175165 -3.263646 1.041897 0.169776 -0.251514 2.597064 1.288670 11.448355 3.369528 3.060337 9.622103 18.914484 -23.083935 4.678763 -2.722080 -39.317638 -6.423562 2.956890 18.673874 -64.737563 5.772520 2.198506 -5.691852 7.097028 22.474763 -2.719820 -1.252691 37.848064 -1.850221 11.399593 -1.579017 59.329766 27.673354 -1.058821 10.143625 10.629924 
